# xmcd
#
# Track frame offsets: 
#        150
#        17836
#        33541
#        47006
#        69810
#        84362
#        99515
#        111172
#        123675
#        137961
#        155125
#        166504
#        186294
#        202079
#        222838
#        239062
#        273001
#        287914
#        305339
#        323841
#
# Disc length: 4569 seconds
#
# Revision: 0
# Processed by: cddbd v1.5.2PL0 Copyright (c) Steve Scherf et al.
# Submitted via: ExactAudioCopy v0.99pb4
#
DISCID=2411d714
DTITLE=Various Artist - 100 Hits - 80S Rewind - CD4
DYEAR=2011
DGENRE=80s
TTITLE0=New Edition - Candy Girl
TTITLE1=Bananarama - Na Na Hey Hey Kiss Him Goodbye
TTITLE2=Dollar - O L'Amour
TTITLE3=Communards - For A Friend
TTITLE4=Bad Manners - Just A Feeling
TTITLE5=Denise Lasalle - My Toot Toot
TTITLE6=Tracey Ullman - Move Over Darling
TTITLE7=Strawberry Switchblade - Let Her Go
TTITLE8=Modern Romance - Ay Ay Ay Ay Moosey
TTITLE9=Jesse Ray - Over The Sea
TTITLE10=The Screaming Blue Messiahs - I Wanna Be A Flintstone
TTITLE11=Chas and Dave - Stars Over 45 (Medley)
TTITLE12=Kate Robbins and Beyond - More Than In Love
TTITLE13=Leo Sayer - Heart (Stop Beating In Time)
TTITLE14=Ryan Paris - Dolce Vita
TTITLE15=Matt Bianco - Wap Bam Boogie
TTITLE16=Big Daddy - Dancing In The Dark
TTITLE17=Chicago - Hard To Say I'm Sorry
TTITLE18=Randy Crawford - Almaz
TTITLE19=Elaine Paige - Memory
EXTD=
EXTT0=
EXTT1=
EXTT2=
EXTT3=
EXTT4=
EXTT5=
EXTT6=
EXTT7=
EXTT8=
EXTT9=
EXTT10=
EXTT11=
EXTT12=
EXTT13=
EXTT14=
EXTT15=
EXTT16=
EXTT17=
EXTT18=
EXTT19=
PLAYORDER=
